<?xml version="1.0" encoding="UTF-8" standalone="no"?>
<!-- Created with Inkscape (http://www.inkscape.org/) -->

<svg
   width="32.522312"
   height="44.470715"
   viewBox="0 0 8.6048618 11.76621"
   version="1.1"
   id="svg1"
   xmlns="http://www.w3.org/2000/svg"
   xmlns:svg="http://www.w3.org/2000/svg">
  <defs
     id="defs1" />
  <g
     id="layer1"
     transform="translate(-2.100647,-0.47852103)">
    <path
       style="fill:#000000;stroke-width:0.0876456"
       d="m 5.7763916,0.47852376 c -0.028896,7.199e-5 -0.058313,0.0016 -0.08785,0.004651 L 2.6199951,1.8706868 C 2.3805968,1.9279778 2.2509491,2.1316261 2.100647,2.3073527 2.4740162,5.1754971 2.6098714,7.974667 3.2571655,10.778153 3.9049411,11.100276 5.6903297,12.026825 7.0083577,12.244731 7.902153,11.818738 8.837578,11.478727 9.660909,10.921814 10.124735,8.4385322 10.353565,5.912657 10.666532,3.4059937 10.739322,3.0838483 10.696122,2.7610673 10.650512,2.4386108 L 6.3484497,0.63820394 C 6.1658613,0.54724851 5.9786639,0.47801985 5.7763916,0.47852376 Z M 5.5335124,1.2991455 C 5.5852542,1.8622637 5.6729808,2.8860877 5.4485265,3.3269695 4.8170307,3.0281658 4.2442209,2.9857127 3.3641357,2.2706624 Z m 0.6046142,0.00982 c 0,-0.1826612 2.1690521,0.5703704 3.3233114,1.514118 L 6.865214,3.8953695 5.8806934,3.502468 C 5.9287499,2.7606597 5.9114555,2.0294543 6.1381266,1.308964 Z M 2.7595215,2.8928467 6.6187174,4.5392578 c -0.022214,2.833899 0.1565506,4.4708701 -0.040308,6.8977702 0,0 -0.6178673,-0.03141 -1.6781784,-0.423145 C 4.3827915,10.822711 3.5046956,10.124447 3.5046956,10.124447 3.2010632,8.2234072 2.7020154,3.6991522 2.7595215,2.8928467 Z M 10.0552,3.2897217 C 9.9428491,5.6693692 9.5113187,8.0859733 9.2030558,10.461377 8.6786335,10.831416 7.9112023,11.287021 7.1907756,11.320239 7.1735917,9.0349806 7.1562794,6.7495857 7.1390991,4.464327 Z"
       id="path7" />
    <g
       id="g2"
       transform="matrix(0.0038432,-0.00474116,0.0064534,0.00531595,2.3937052,7.0524224)"
       style="display:inline;fill:#000000">
      <path
         id="path1"
         style="fill:#000000;fill-rule:evenodd;stroke-width:16.1376"
         d="M 282.11652,24.412765 C 298.07579,95.581322 262.8793,266.47294 329.99348,237.91863 380.63723,216.37181 335.89612,135.24241 373.70561,115.62066 399.27191,102.35268 436.0036,11.581301 389.83963,39.572665 372.87766,49.857497 351.8287,105.84345 340.73495,55.416694 335.11988,29.893382 305.15181,20.507877 282.11652,24.412765 Z M 180.20098,129.44972 c -27.58331,32.43323 -54.57749,69.15923 -109.893211,52.78184 -38.198005,-11.30932 -69.7982862,54.61077 -17.862854,50.59629 33.810966,-2.6135 21.848539,15.2542 2.56362,29.54811 -25.108466,18.61031 -18.9073,87.414 18.203069,46.42178 C 121.3636,255.60891 288.99749,154.58397 217.46418,149.04753 c -14.9976,-1.16077 -22.27567,-18.4437 -37.2632,-19.59781 z m -13.90946,177.22375 c -5.04384,55.52785 94.51061,47.33907 86.38068,84.67131 -7.33499,33.68194 65.39054,89.28801 54.70058,37.83508 -4.56814,-21.98736 -20.32193,-57.33616 24.64531,-47.91523 35.32403,7.40062 80.23839,-58.85003 21.22512,-49.68619 -62.33316,-8.18223 -124.55943,-17.17304 -186.95169,-24.90497 z" />
      <path
         id="path4"
         style="fill:#000000;fill-rule:evenodd;stroke-width:16.1376"
         d="m 192.49348,12.738937 c -22.46692,13.10056 -4.97814,41.779302 -7.95103,64.578857 -3.85641,29.575276 -33.3467,6.559923 -54.42496,11.093667 -17.01094,3.658903 -49.74781,39.777519 -18.24603,42.484789 21.13315,1.81618 42.03181,4.32765 63.11042,6.93038 43.63082,5.38741 141.20509,58.89781 130.89246,16.16231 -4.27787,-17.72748 -3.48573,-41.30217 -21.93988,-50.95047 -21.61532,0.27915 -52.81221,-1.6127 -56.10374,-28.966173 -2.51359,-20.88859 1.73471,-53.833103 -22.99852,-60.752252 -4.0043,-1.120208 -8.24679,-1.217299 -12.33872,-0.581108 z M 434.47004,128.70964 c -60.28095,66.39738 -279.57062,186.79361 -189.955,190.1768 23.7376,0.89615 52.53057,17.35987 71.21281,2.68844 19.28069,-15.1414 27.50457,-53.25977 53.79734,-49.91879 24.89178,3.16296 50.8719,17.42651 74.67532,9.4891 19.57181,-6.52636 25.11445,-41.99959 3.1529,-48.73629 -12.7546,1.75508 -53.99442,-3.95634 -34.41184,-19.72211 17.68825,-14.24067 33.92005,-33.44456 27.07091,-60.3247 -1.99976,-7.84829 -3.52512,-15.80841 -5.54244,-23.65245 z M 153.6302,226.6823 c -11.9871,18.28437 -43.089,30.81565 -36.58903,55.07185 5.17772,19.32187 17.17066,44.94619 -0.31191,60.48521 -19.357188,17.20522 -46.310537,31.85018 -53.315865,56.84528 -6.875271,24.53105 38.643445,38.7984 44.527955,14.88974 3.52882,-14.33753 36.2814,-42.46282 35.12123,-13.67848 -0.97619,24.2197 29.57289,55.99709 48.03994,39.12107 18.59099,-16.98928 1.00268,-41.22008 -3.40594,-60.87284 C 176.34109,327.92353 164.98535,277.30298 153.6302,226.6823 Z" />
    </g>
  </g>
</svg>
