<?xml version="1.0" encoding="UTF-8" standalone="no"?>
<!-- Created with Inkscape (http://www.inkscape.org/) -->

<svg
   version="1.1"
   id="svg1"
   width="470"
   height="470"
   viewBox="0 0 470 470"
   xml:space="preserve"
   sodipodi:docname="flake.svg"
   inkscape:version="1.4.2 (ebf0e940d0, 2025-05-08)"
   xmlns:inkscape="http://www.inkscape.org/namespaces/inkscape"
   xmlns:sodipodi="http://sodipodi.sourceforge.net/DTD/sodipodi-0.dtd"
   xmlns="http://www.w3.org/2000/svg"
   xmlns:svg="http://www.w3.org/2000/svg"
   xmlns:rdf="http://www.w3.org/1999/02/22-rdf-syntax-ns#"
   xmlns:cc="http://creativecommons.org/ns#"><sodipodi:namedview
     id="namedview1"
     pagecolor="#4b412b"
     bordercolor="#c9b800"
     borderopacity="0.24705882"
     inkscape:showpageshadow="2"
     inkscape:pageopacity="0.0"
     inkscape:pagecheckerboard="0"
     inkscape:deskcolor="#d1d1d1"
     showgrid="false"
     inkscape:zoom="2.6574468"
     inkscape:cx="234.81185"
     inkscape:cy="235"
     inkscape:window-width="2560"
     inkscape:window-height="1523"
     inkscape:window-x="0"
     inkscape:window-y="0"
     inkscape:window-maximized="1"
     inkscape:current-layer="svg1" /><defs
     id="defs1" /><path
     id="path1"
     style="fill:#ffffff;fill-rule:evenodd;stroke:none;stroke-width:20.6022;stroke-dasharray:none;stroke-opacity:1"
     d="m 272.37474,24.789065 c 15.82163,71.168557 -19.07131,242.060175 47.46405,213.505865 50.20698,-21.54682 5.85173,-102.67622 43.33514,-122.29797 25.3458,-13.26799 61.7607,-104.039358 15.99487,-76.047995 C 362.35312,50.233797 341.4857,106.21975 330.48762,55.792994 324.92098,30.269682 295.21137,20.884177 272.37474,24.789065 Z M 171.33817,129.82602 c -27.34542,32.43323 -54.10679,69.15923 -108.945436,52.78184 -37.868569,-11.30932 -69.1963142,54.61077 -17.708797,50.59629 33.519366,-2.6135 21.660108,15.2542 2.541511,29.54811 -24.891921,18.61031 -18.744235,87.414 18.046077,46.42178 C 113.00823,255.98521 279.19637,154.96027 208.28,149.42383 c -14.86826,-1.16077 -22.08356,-18.4437 -36.94183,-19.59781 z m -13.7895,177.22375 c -5.00034,55.52785 93.69551,47.33907 85.6357,84.67131 -7.27173,33.68194 64.82658,89.28801 54.22881,37.83508 -4.52874,-21.98736 -20.14666,-57.33616 24.43276,-47.91523 35.01938,7.40062 79.54638,-58.85003 21.04207,-49.68619 -61.79558,-8.18223 -123.48518,-17.17304 -185.33934,-24.90497 z" /><path
     id="path4"
     style="fill:#ffffff;fill-rule:evenodd;stroke:none;stroke-width:17.9565;stroke-dasharray:none;stroke-opacity:1"
     d="m 145.96713,12.626792 c -19.85286,12.518291 2.78342,41.860937 4.04833,64.697591 1.64081,29.623387 -31.84718,5.62587 -51.906044,9.571303 -16.188257,3.184113 -41.969962,38.546564 -10.239714,42.184454 21.286428,2.4405 42.468818,5.57323 63.846488,8.80295 44.24984,6.68523 150.8685,63.32267 132.74954,20.05575 -7.51609,-17.94792 -11.08614,-41.62731 -31.16363,-51.86447 -21.37733,-0.34783 -52.65468,-3.15702 -60.97131,-30.754408 -6.35102,-21.07486 -8.22578,-54.074358 -34.02399,-61.750149 -4.17673,-1.242708 -8.40057,-1.463681 -12.33967,-0.943021 z M 407.28207,136.26165 c -47.49431,65.00441 -242.64983,179.67688 -153.18206,185.68409 23.69843,1.59121 55.28471,18.98133 71.09533,4.77361 16.31706,-14.66283 17.42774,-52.74863 44.11099,-48.62505 25.26144,3.90386 53.65266,19.0001 75.78437,11.7118 18.19728,-5.99265 17.13853,-41.49693 -5.87819,-48.90869 -12.32036,1.39373 -54.25968,-5.54774 -37.75867,-20.82955 14.90477,-13.80352 27.44871,-32.63951 15.6926,-59.86444 -3.43246,-7.94897 -6.41528,-15.99657 -9.86437,-23.94177 z M 146.96452,226.5994 c -8.50573,18.0349 -37.02426,29.72976 -26.09908,54.30638 8.70272,19.57712 25.32626,45.68899 10.86527,60.80388 -16.01162,16.73561 -40.026888,30.67622 -42.354017,55.60307 -2.283926,24.46407 45.478067,40.13224 46.894757,16.26513 0.84957,-14.31261 28.12359,-41.63798 32.29126,-12.7314 3.50676,24.32255 39.66316,57.16038 54.85314,40.72987 15.29193,-16.54078 -6.62127,-41.41428 -14.62267,-61.30171 C 188.1836,329.04955 167.57378,277.82453 146.96452,226.5994 Z" /><metadata
     id="metadata19"><rdf:RDF><cc:Work
         rdf:about=""><cc:license
           rdf:resource="http://creativecommons.org/publicdomain/zero/1.0/" /></cc:Work><cc:License
         rdf:about="http://creativecommons.org/publicdomain/zero/1.0/"><cc:permits
           rdf:resource="http://creativecommons.org/ns#Reproduction" /><cc:permits
           rdf:resource="http://creativecommons.org/ns#Distribution" /><cc:permits
           rdf:resource="http://creativecommons.org/ns#DerivativeWorks" /></cc:License></rdf:RDF></metadata></svg>
